<?xml version="1.0" standalone="no"?>
<!DOCTYPE svg PUBLIC "-//W3C//DTD SVG 20010904//EN"
 "http://www.w3.org/TR/2001/REC-SVG-20010904/DTD/svg10.dtd">
<svg version="1.0" xmlns="http://www.w3.org/2000/svg"
 width="2362.000000pt" height="1181.000000pt" viewBox="0 0 2362.000000 1181.000000"
 preserveAspectRatio="xMidYMid meet">
<metadata>
Created by potrace 1.16, written by Peter Selinger 2001-2019
</metadata>
<g transform="translate(0.000000,1181.000000) scale(0.100000,-0.100000)"
fill="#000000" stroke="none">
<path d="M18905 9210 c-321 -22 -588 -90 -835 -215 -148 -74 -253 -149 -390
-280 -67 -64 -85 -75 -170 -106 -121 -43 -424 -195 -558 -279 -200 -125 -411
-295 -565 -454 -540 -557 -782 -1164 -804 -2021 -7 -249 6 -442 42 -665 147
-891 668 -1756 1385 -2296 487 -366 969 -552 1650 -636 163 -20 617 -17 760 5
313 49 580 143 785 277 94 62 214 160 271 222 33 35 59 51 130 77 228 84 576
275 783 428 580 431 962 1022 1100 1698 41 204 53 325 58 617 6 315 -3 465
-42 694 -190 1123 -950 2154 -1930 2620 -378 180 -802 283 -1285 314 -179 11
-219 11 -385 0z m895 -495 c171 -21 372 -58 524 -96 770 -194 1398 -624 1748
-1196 87 -142 115 -200 101 -214 -9 -9 -19 0 -45 36 -324 468 -693 772 -1233
1015 -308 139 -667 236 -1070 291 -194 26 -665 37 -881 20 -506 -41 -967 -144
-1372 -307 -73 -30 -155 -66 -183 -80 -28 -14 -53 -24 -54 -22 -8 8 67 173 83
183 34 20 199 88 322 132 373 133 776 214 1290 257 115 10 642 -3 770 -19z
m55 -465 c714 -60 1338 -288 1810 -660 107 -85 348 -327 417 -420 143 -193
260 -403 328 -588 35 -96 37 -112 13 -112 -13 0 -29 27 -58 92 -102 237 -281
485 -501 698 -475 458 -1158 742 -1949 810 -258 22 -655 11 -950 -25 -505 -63
-1111 -239 -1599 -464 -49 -23 -92 -39 -95 -35 -3 3 -8 50 -9 104 l-4 98 49
22 c578 259 1282 438 1903 483 110 8 536 6 645 -3z m170 -500 c486 -52 881
-161 1255 -346 583 -290 975 -719 1155 -1267 43 -132 90 -350 79 -368 -11 -19
-24 -7 -34 34 -6 23 -27 89 -46 147 -243 717 -927 1267 -1859 1495 -495 121
-1075 148 -1625 75 -500 -67 -999 -209 -1433 -409 l-88 -40 17 -33 c15 -29 73
-113 119 -172 14 -18 18 -17 117 27 733 325 1576 462 2345 382 782 -82 1467
-379 1918 -830 339 -340 515 -725 542 -1181 4 -85 3 -117 -7 -129 -17 -20 -40
-2 -40 31 0 13 -11 75 -24 138 -126 596 -542 1094 -1175 1411 -496 247 -1152
370 -1791 336 -547 -30 -1070 -139 -1560 -326 -52 -20 -103 -39 -112 -42 -10
-3 -18 -9 -18 -13 0 -10 132 -104 207 -148 l52 -31 98 40 c320 130 672 219
1058 266 213 25 730 25 930 -1 287 -37 497 -83 740 -163 801 -263 1342 -780
1481 -1414 27 -120 27 -447 0 -569 -23 -109 -64 -237 -77 -246 -20 -12 -21 5
-4 103 22 129 22 337 0 468 -74 437 -348 824 -786 1112 -299 197 -682 343
-1084 412 -224 39 -316 46 -620 46 -326 0 -430 -9 -744 -66 -236 -43 -551
-122 -551 -139 0 -15 199 -35 335 -34 139 1 345 26 615 75 150 27 500 37 702
20 265 -23 559 -83 783 -161 207 -72 524 -250 670 -375 136 -118 257 -254 320
-360 36 -61 40 -139 11 -195 -59 -112 -312 -377 -481 -504 -201 -150 -327
-230 -545 -344 -80 -41 -147 -77 -149 -78 -2 -2 12 -40 32 -85 21 -44 37 -84
37 -88 0 -21 -365 -172 -615 -254 -401 -132 -813 -216 -1235 -253 -233 -20
-714 -15 -920 11 -580 71 -1062 239 -1470 510 -476 316 -791 762 -903 1276
-36 165 -39 189 -21 189 8 0 16 -6 18 -12 116 -395 258 -646 516 -911 470
-485 1150 -775 2010 -858 183 -18 631 -15 830 5 527 52 1012 174 1485 373 115
49 203 89 214 99 6 5 -57 108 -104 167 l-45 57 -58 -29 c-162 -81 -572 -223
-823 -285 -426 -104 -766 -142 -1214 -133 -350 7 -603 39 -895 112 -1051 265
-1771 921 -1894 1725 -19 127 -29 302 -17 319 20 30 37 3 50 -78 51 -336 221
-691 455 -951 435 -482 1089 -782 1901 -872 183 -20 721 -17 905 5 485 59 916
164 1340 328 l81 31 -38 30 c-50 40 -137 99 -189 128 l-42 22 -113 -45 c-1118
-446 -2493 -357 -3375 218 -255 166 -448 353 -602 580 -96 142 -183 353 -219
532 -27 133 -24 432 5 568 27 126 65 238 82 243 14 5 14 1 -10 -168 -16 -107
-7 -358 15 -460 93 -425 356 -783 780 -1063 351 -231 806 -386 1300 -443 182
-21 583 -24 760 -5 257 27 589 90 829 158 148 42 147 43 -35 64 -185 20 -492
-5 -808 -67 -141 -27 -397 -38 -601 -26 -646 41 -1138 211 -1540 535 -122 98
-176 154 -265 272 -84 112 -98 139 -98 201 0 68 33 126 136 246 161 186 300
310 502 450 106 73 346 214 467 274 l96 48 -19 37 c-10 21 -28 61 -39 89 l-20
51 92 43 c278 130 649 255 993 335 318 73 546 106 940 135 90 7 558 -3 660
-14z m-4294 -2781 c4 -8 28 -57 52 -109 68 -148 210 -368 312 -484 14 -16 63
-68 108 -115 758 -785 2047 -1075 3424 -771 368 82 869 252 1173 399 71 35 68
39 72 -98 l3 -84 -100 -44 c-55 -24 -176 -73 -270 -108 -1328 -497 -2657 -481
-3630 45 -539 292 -919 701 -1130 1218 -41 101 -49 129 -46 160 1 17 22 11 32
-9z m300 -796 c337 -501 876 -888 1543 -1108 935 -308 2162 -240 3094 172 68
30 125 53 127 51 7 -7 -56 -153 -73 -170 -46 -45 -460 -192 -723 -257 -850
-208 -1690 -195 -2414 40 -716 231 -1280 672 -1589 1241 -43 80 -50 108 -26
108 5 0 33 -35 61 -77z"/>
<path d="M1290 5810 l0 -2330 495 0 495 0 0 1190 c0 655 3 1190 8 1190 4 0
394 -536 867 -1190 l860 -1189 708 -1 c564 0 707 3 701 13 -4 6 -435 549 -958
1205 -523 656 -952 1196 -954 1200 -1 4 415 509 924 1122 l926 1115 -653 3
c-612 2 -654 1 -670 -15 -10 -10 -405 -504 -879 -1098 -474 -594 -866 -1081
-871 -1083 -5 -2 -9 449 -9 1097 l0 1101 -495 0 -495 0 0 -2330z"/>
<path d="M5520 5810 l0 -2330 1513 3 c1505 3 1512 3 1602 24 274 65 500 187
680 368 256 256 377 581 362 975 -7 172 -29 298 -78 437 -96 273 -290 512
-523 643 l-59 33 49 25 c155 78 294 245 363 439 79 216 89 530 26 777 -118
466 -479 773 -1065 904 l-115 26 -1377 3 -1378 4 0 -2331z m2450 1557 c161
-39 265 -91 347 -172 94 -95 138 -215 136 -375 -3 -252 -128 -417 -373 -492
l-75 -22 -767 -4 -768 -3 0 546 0 546 718 -4 c612 -3 727 -6 782 -20z m51
-1832 c108 -20 197 -49 282 -91 230 -114 342 -294 341 -549 -2 -307 -134 -495
-415 -589 -173 -58 -198 -60 -1011 -63 l-748 -4 0 655 0 656 734 0 c619 0 747
-2 817 -15z"/>
<path d="M10920 8133 c-97 -15 -237 -50 -322 -79 -462 -161 -741 -468 -840
-924 -28 -132 -36 -416 -15 -555 77 -498 418 -831 987 -964 192 -45 290 -51
863 -51 334 0 577 -4 632 -11 253 -31 463 -143 568 -302 76 -115 115 -295 96
-438 -40 -288 -198 -479 -456 -552 l-78 -22 -1237 -3 -1238 -3 0 -374 0 -375
1473 0 1472 0 100 24 c345 84 654 276 839 523 183 244 267 517 268 873 1 203
-16 321 -67 477 -65 195 -148 329 -299 478 -197 196 -456 334 -771 411 -205
50 -278 54 -949 54 -585 0 -627 1 -699 19 -115 30 -184 67 -260 142 -79 79
-129 174 -153 292 -14 70 -14 84 -1 152 50 242 200 384 476 452 58 14 200 17
1229 20 l1162 4 0 370 0 369 -1377 -1 c-758 -1 -1389 -4 -1403 -6z"/>
</g>
</svg>
